<?xml version="1.0" encoding="utf-8"?>
<!-- Generator: Adobe Illustrator 23.0.3, SVG Export Plug-In . SVG Version: 6.00 Build 0)  -->
<svg version="1.1" id="Layer_1" xmlns="http://www.w3.org/2000/svg" xmlns:xlink="http://www.w3.org/1999/xlink" x="0px" y="0px"
	 viewBox="0 0 200 194.5" style="enable-background:new 0 0 200 194.5;" xml:space="preserve">
<style type="text/css">
	.st0{fill:none;}
	.st1{fill:#272525;}
	.st2{fill:#FFFFFF;stroke:#000000;stroke-width:8;stroke-miterlimit:10;}
	.st3{fill:url(#SVGID_1_);}
	.st4{font-family:'Tektur-Black';}
	.st5{font-size:43.07px;}
</style>
<pattern  y="194.5" width="28.8" height="28.8" patternUnits="userSpaceOnUse" id="_10_dpi_40_" viewBox="2.9 -31.7 28.8 28.8" style="overflow:visible;">
	<g>
		<rect x="2.9" y="-31.7" class="st0" width="28.8" height="28.8"/>
		<rect x="2.9" y="-31.7" class="st0" width="28.8" height="28.8"/>
		<path class="st1" d="M31.7-34.6c1.6,0,2.9,1.3,2.9,2.9s-1.3,2.9-2.9,2.9s-2.9-1.3-2.9-2.9S30.1-34.6,31.7-34.6L31.7-34.6z"/>
		<path class="st1" d="M17.3-34.6c1.6,0,2.9,1.3,2.9,2.9s-1.3,2.9-2.9,2.9s-2.9-1.3-2.9-2.9S15.7-34.6,17.3-34.6L17.3-34.6z"/>
		<path class="st1" d="M31.7-20.2c1.6,0,2.9,1.3,2.9,2.9s-1.3,2.9-2.9,2.9s-2.9-1.3-2.9-2.9S30.1-20.2,31.7-20.2
			C31.7-20.2,31.7-20.2,31.7-20.2z"/>
		<path class="st1" d="M17.3-20.2c1.6,0,2.9,1.3,2.9,2.9s-1.3,2.9-2.9,2.9s-2.9-1.3-2.9-2.9S15.7-20.2,17.3-20.2L17.3-20.2z"/>
		<path class="st1" d="M10.1-27.4c1.6,0,2.9,1.3,2.9,2.9c0,1.6-1.3,2.9-2.9,2.9s-2.9-1.3-2.9-2.9c0,0,0,0,0,0
			C7.2-26.1,8.5-27.4,10.1-27.4z"/>
		<path class="st1" d="M24.5-27.4c1.6,0,2.9,1.3,2.9,2.9s-1.3,2.9-2.9,2.9s-2.9-1.3-2.9-2.9S22.9-27.4,24.5-27.4L24.5-27.4z"/>
		<path class="st1" d="M10.1-13c1.6,0,2.9,1.3,2.9,2.9c0,1.6-1.3,2.9-2.9,2.9c-1.6,0-2.9-1.3-2.9-2.9c0,0,0,0,0,0
			C7.2-11.7,8.5-13,10.1-13z"/>
		<path class="st1" d="M24.5-13c1.6,0,2.9,1.3,2.9,2.9s-1.3,2.9-2.9,2.9s-2.9-1.3-2.9-2.9S22.9-13,24.5-13C24.5-13,24.5-13,24.5-13z
			"/>
		<path class="st1" d="M2.9-34.6c1.6,0,2.9,1.3,2.9,2.9c0,0,0,0,0,0c0,1.6-1.3,2.9-2.9,2.9S0-30.1,0-31.7S1.3-34.6,2.9-34.6z"/>
		<path class="st1" d="M2.9-20.2c1.6,0,2.9,1.3,2.9,2.9v0c0,1.6-1.3,2.9-2.9,2.9S0-15.7,0-17.3S1.3-20.2,2.9-20.2z"/>
		<path class="st1" d="M31.7-5.8c1.6,0,2.9,1.3,2.9,2.9c0,0,0,0,0,0c0,1.6-1.3,2.9-2.9,2.9s-2.9-1.3-2.9-2.9S30.1-5.8,31.7-5.8z"/>
		<path class="st1" d="M17.3-5.8c1.6,0,2.9,1.3,2.9,2.9c0,0,0,0,0,0c0,1.6-1.3,2.9-2.9,2.9s-2.9-1.3-2.9-2.9S15.7-5.8,17.3-5.8z"/>
		<path class="st1" d="M2.9-5.8c1.6,0,2.9,1.3,2.9,2.9c0,0,0,0,0,0C5.8-1.3,4.5,0,2.9,0c0,0,0,0,0,0C1.3,0,0-1.3,0-2.9c0,0,0,0,0,0
			C0-4.5,1.3-5.8,2.9-5.8C2.9-5.8,2.9-5.8,2.9-5.8z"/>
	</g>
</pattern>
<title>Asset 14</title>
<g>
	<g id="Layer_3">
		<path class="st2" d="M58.4,163.4c-6-1.9-12.1-3.8-19.3-8.3c-9.5-6-17.5-14.2-23.4-23.8C6,115.6,4.8,100.5,4.3,92.6
			s-1.4-25.1,7.8-43.9c4-8.3,14.5-26,35.9-36.7c18-9,34.3-8.2,44.8-7.8c9.5,0.4,26.9,1.4,45.3,12.4c5.4,3.2,22.6,13.8,32.6,34.9
			c1.3,2.8,2.4,5.6,3.3,8.5c7.4,22.9,1.1,43.3-1.6,51.7c-2.9,9.2-7.9,24.8-22.9,38.2c-16.5,14.8-34.8,18-42.2,19.1
			C86.9,172.3,70.7,167.3,58.4,163.4z"/>
		<pattern  id="SVGID_1_" xlink:href="#_10_dpi_40_" patternTransform="matrix(0.72 0 0 -0.72 -2224.9873 -13489.0869)">
		</pattern>
		<path class="st3" d="M65.4,179.4c6.3,4.7,17.2,10.8,34.2,14c7.9,1.5,24.6,3.2,50.6-7.1c3.4-1.4,22.6-10.1,34.4-27
			c8.7-12.1,13.9-26.4,15.1-41.3c1.1-13.1-0.7-26.4-5.2-38.8c-5.3-14.6-13.9-26.6-15.6-25.8c-2,0.9,8.4,17.5,7.3,41.3
			c-0.8,15.6-6.1,27.3-8.9,33.1c-3.3,6.9-9.8,20.4-24.5,32c-11.6,8.9-25.2,14.7-39.6,17.1c-23.4,3.8-41.8-2.8-51-6.2
			c-7.9-2.9-15.4-6.8-22.4-11.4"/>
		<path d="M41.6,161.4c9.4,7.2,19.9,12.3,28.1,13.8c13.8,2.5,26.3,4.8,43.7,2.1c12.7-1.9,29.8-4.6,45.1-17.9
			c12.1-10.5,19.3-21.6,22.6-29c3.9-9,6.4-18.5,7.3-28.3c1.2-13.6-1-27.4-6.3-40c-3.8-8.8-12.4-19.7-13.2-19.3s6.6,11.3,8.7,22
			c2.1,10.6,0.9,19.1-0.3,27.9c-1.2,9.6-3.6,19.1-7.3,28c-3.4,8.1-7.9,18.9-18.8,29c-6.5,5.9-14,10.6-22.2,13.8
			c-11.4,4.6-23.8,6.8-36.1,6.2c-4.1-0.1-28.7-0.8-44.4-10.3c-1.6-1-7-4.4-8.3-3.1C39.2,157.2,40.8,160.7,41.6,161.4z"/>
	</g>
	<g id="Layer_4">
		<text transform="matrix(1.01 0 0 1 39.0298 100.65)" class="st4 st5">Email</text>
	</g>
</g>
</svg>
