<svg xmlns="http://www.w3.org/2000/svg" xmlns:xlink="http://www.w3.org/1999/xlink" width="200.03" height="194.51" viewBox="0 0 200.03 194.51"><defs><style>.cls-1{fill:none;}.cls-2{fill:#272525;}.cls-3{fill:#fff;stroke:#000;stroke-miterlimit:10;stroke-width:8px;}.cls-4{fill:url(#_10_dpi_40_);}.cls-5{font-size:43.07px;font-family:FranklinGothic-Heavy, Franklin Gothic Heavy;font-weight:800;}</style><pattern id="_10_dpi_40_" data-name="10 dpi 40%" width="28.8" height="28.8" patternTransform="translate(29.31 33.02) scale(0.72 0.72)" patternUnits="userSpaceOnUse" viewBox="0 0 28.8 28.8"><rect class="cls-1" width="28.8" height="28.8"/><path class="cls-2" d="M28.8,31.68a2.88,2.88,0,1,0-2.88-2.88A2.88,2.88,0,0,0,28.8,31.68Z"/><path class="cls-2" d="M14.4,31.68a2.88,2.88,0,1,0-2.88-2.88A2.88,2.88,0,0,0,14.4,31.68Z"/><path class="cls-2" d="M28.8,17.28a2.88,2.88,0,1,0-2.88-2.88A2.88,2.88,0,0,0,28.8,17.28Z"/><path class="cls-2" d="M14.4,17.28a2.88,2.88,0,1,0-2.88-2.88A2.88,2.88,0,0,0,14.4,17.28Z"/><path class="cls-2" d="M7.2,24.48A2.88,2.88,0,1,0,4.32,21.6,2.88,2.88,0,0,0,7.2,24.48Z"/><path class="cls-2" d="M21.6,24.48a2.88,2.88,0,1,0-2.88-2.88A2.88,2.88,0,0,0,21.6,24.48Z"/><path class="cls-2" d="M7.2,10.08A2.88,2.88,0,1,0,4.32,7.2,2.88,2.88,0,0,0,7.2,10.08Z"/><path class="cls-2" d="M21.6,10.08A2.88,2.88,0,1,0,18.72,7.2,2.88,2.88,0,0,0,21.6,10.08Z"/><path class="cls-2" d="M0,31.68A2.88,2.88,0,0,0,2.88,28.8,2.88,2.88,0,0,0,0,25.92a2.88,2.88,0,0,0,0,5.76Z"/><path class="cls-2" d="M0,17.28A2.88,2.88,0,0,0,2.88,14.4,2.88,2.88,0,0,0,0,11.52a2.88,2.88,0,0,0,0,5.76Z"/><path class="cls-2" d="M28.8,2.88A2.88,2.88,0,0,0,31.68,0a2.88,2.88,0,0,0-5.76,0A2.88,2.88,0,0,0,28.8,2.88Z"/><path class="cls-2" d="M14.4,2.88A2.88,2.88,0,0,0,17.28,0a2.88,2.88,0,0,0-5.76,0A2.88,2.88,0,0,0,14.4,2.88Z"/><path class="cls-2" d="M0,2.88A2.88,2.88,0,0,0,2.88,0,2.88,2.88,0,0,0,0-2.88,2.88,2.88,0,0,0-2.88,0,2.88,2.88,0,0,0,0,2.88Z"/></pattern></defs><title>Asset 14</title><g id="Layer_2" data-name="Layer 2"><g id="Layer_3" data-name="Layer 3"><path class="cls-3" d="M58.44,163.43c-6-1.89-12.09-3.82-19.26-8.27a74.51,74.51,0,0,1-23.43-23.77C6,115.58,4.81,100.53,4.3,92.62S2.89,67.57,12.11,48.69c4-8.25,14.46-26,35.92-36.69C66,3,82.38,3.78,92.81,4.25c9.49.42,26.89,1.41,45.29,12.4,5.43,3.24,22.62,13.82,32.55,34.9A73.24,73.24,0,0,1,174,60.06c7.39,22.85,1.13,43.27-1.56,51.69-2.95,9.17-7.95,24.76-22.91,38.24-16.46,14.83-34.8,18-42.18,19.12C86.94,172.33,70.72,167.27,58.44,163.43Z"/><path class="cls-4" d="M65.39,179.45c6.29,4.69,17.16,10.82,34.18,14,7.93,1.46,24.56,3.18,50.59-7.15,3.39-1.35,22.56-10.13,34.45-27A82.26,82.26,0,0,0,199.71,118a91.93,91.93,0,0,0-5.2-38.76c-5.28-14.6-13.87-26.63-15.62-25.85-2,.91,8.43,17.5,7.29,41.35-.75,15.63-6.15,27.34-8.85,33.08-3.27,6.92-9.83,20.41-24.48,32a88.17,88.17,0,0,1-39.56,17.06c-23.38,3.84-41.79-2.76-51-6.2A112.14,112.14,0,0,1,39.87,159.3"/><path d="M41.61,161.36c9.37,7.24,19.88,12.3,28.11,13.78,13.82,2.5,26.31,4.75,43.74,2.07,12.65-1.94,29.8-4.58,45.12-17.91,12.11-10.53,19.32-21.58,22.56-29a92,92,0,0,0,7.29-28.25,84.43,84.43,0,0,0-6.25-40c-3.82-8.84-12.37-19.7-13.19-19.29s6.6,11.27,8.68,22c2.06,10.63.88,19.08-.34,27.91A106.8,106.8,0,0,1,170,120.7c-3.4,8.1-7.94,18.94-18.75,29a71.26,71.26,0,0,1-22.21,13.78,85.84,85.84,0,0,1-36.1,6.2c-4.09-.11-28.69-.82-44.43-10.33-1.6-1-7-4.41-8.33-3.11C39.24,157.18,40.79,160.73,41.61,161.36Z"/></g><g id="Layer_4" data-name="Layer 4"><text class="cls-5" transform="translate(39.03 100.65) scale(1.01 1)">Email</text></g></g></svg>