<?xml version="1.0" encoding="utf-8"?>
<!-- Generator: Adobe Illustrator 23.0.3, SVG Export Plug-In . SVG Version: 6.00 Build 0)  -->
<svg version="1.1" id="Layer_1" xmlns="http://www.w3.org/2000/svg" xmlns:xlink="http://www.w3.org/1999/xlink" x="0px" y="0px"
	 viewBox="0 0 506.4 443.3" style="enable-background:new 0 0 506.4 443.3;" xml:space="preserve">
<style type="text/css">
	.st0{fill:none;}
	.st1{fill:#272525;}
	.st2{fill:url(#SVGID_1_);}
	.st3{fill:#FFFFFF;}
	.st4{font-family:'Tektur-Black';}
	.st5{font-size:43.07px;}
	.st6{letter-spacing:-1;}
</style>
<pattern  y="443.3" width="28.8" height="28.8" patternUnits="userSpaceOnUse" id="_10_dpi_40_" viewBox="2.9 -31.7 28.8 28.8" style="overflow:visible;">
	<g>
		<rect x="2.9" y="-31.7" class="st0" width="28.8" height="28.8"/>
		<rect x="2.9" y="-31.7" class="st0" width="28.8" height="28.8"/>
		<path class="st1" d="M31.7-34.6c1.6,0,2.9,1.3,2.9,2.9s-1.3,2.9-2.9,2.9s-2.9-1.3-2.9-2.9S30.1-34.6,31.7-34.6L31.7-34.6z"/>
		<path class="st1" d="M17.3-34.6c1.6,0,2.9,1.3,2.9,2.9s-1.3,2.9-2.9,2.9s-2.9-1.3-2.9-2.9S15.7-34.6,17.3-34.6L17.3-34.6z"/>
		<path class="st1" d="M31.7-20.2c1.6,0,2.9,1.3,2.9,2.9s-1.3,2.9-2.9,2.9s-2.9-1.3-2.9-2.9S30.1-20.2,31.7-20.2
			C31.7-20.2,31.7-20.2,31.7-20.2z"/>
		<path class="st1" d="M17.3-20.2c1.6,0,2.9,1.3,2.9,2.9s-1.3,2.9-2.9,2.9s-2.9-1.3-2.9-2.9S15.7-20.2,17.3-20.2L17.3-20.2z"/>
		<path class="st1" d="M10.1-27.4c1.6,0,2.9,1.3,2.9,2.9c0,1.6-1.3,2.9-2.9,2.9s-2.9-1.3-2.9-2.9c0,0,0,0,0,0
			C7.2-26.1,8.5-27.4,10.1-27.4z"/>
		<path class="st1" d="M24.5-27.4c1.6,0,2.9,1.3,2.9,2.9s-1.3,2.9-2.9,2.9s-2.9-1.3-2.9-2.9S22.9-27.4,24.5-27.4L24.5-27.4z"/>
		<path class="st1" d="M10.1-13c1.6,0,2.9,1.3,2.9,2.9c0,1.6-1.3,2.9-2.9,2.9c-1.6,0-2.9-1.3-2.9-2.9c0,0,0,0,0,0
			C7.2-11.7,8.5-13,10.1-13z"/>
		<path class="st1" d="M24.5-13c1.6,0,2.9,1.3,2.9,2.9s-1.3,2.9-2.9,2.9s-2.9-1.3-2.9-2.9S22.9-13,24.5-13C24.5-13,24.5-13,24.5-13z
			"/>
		<path class="st1" d="M2.9-34.6c1.6,0,2.9,1.3,2.9,2.9c0,0,0,0,0,0c0,1.6-1.3,2.9-2.9,2.9S0-30.1,0-31.7S1.3-34.6,2.9-34.6z"/>
		<path class="st1" d="M2.9-20.2c1.6,0,2.9,1.3,2.9,2.9v0c0,1.6-1.3,2.9-2.9,2.9S0-15.7,0-17.3S1.3-20.2,2.9-20.2z"/>
		<path class="st1" d="M31.7-5.8c1.6,0,2.9,1.3,2.9,2.9c0,0,0,0,0,0c0,1.6-1.3,2.9-2.9,2.9s-2.9-1.3-2.9-2.9S30.1-5.8,31.7-5.8z"/>
		<path class="st1" d="M17.3-5.8c1.6,0,2.9,1.3,2.9,2.9c0,0,0,0,0,0c0,1.6-1.3,2.9-2.9,2.9s-2.9-1.3-2.9-2.9S15.7-5.8,17.3-5.8z"/>
		<path class="st1" d="M2.9-5.8c1.6,0,2.9,1.3,2.9,2.9c0,0,0,0,0,0C5.8-1.3,4.5,0,2.9,0c0,0,0,0,0,0C1.3,0,0-1.3,0-2.9c0,0,0,0,0,0
			C0-4.5,1.3-5.8,2.9-5.8C2.9-5.8,2.9-5.8,2.9-5.8z"/>
	</g>
</pattern>
<title>Asset 12</title>
<g>
	<g id="Graphic_Element">
		<pattern  id="SVGID_1_" xlink:href="#_10_dpi_40_" patternTransform="matrix(1.33 0 0 -1.57 4215.7861 -21216.1797)">
		</pattern>
		<path class="st2" d="M173.4,352.5c-74.7-11-108.9-70.9-109.9-119.4C62,151.8,130,101,188.7,80.3c59.2-20.9,124.1-21.5,183.7-2.9
			c51.7,16.1,125.5,52.1,133.3,123.8c3.7,33.7-9.7,67.7-29.3,91.5c-52.7,64-144.3,85.1-216.7,75.3c-1.9,27,8,59.1,26.5,75.3
			C240.8,437.6,193.7,400.8,173.4,352.5z"/>
		<path d="M136.8,290.4c-74-15.8-105.4-77.7-104.2-126.2c2.1-81.3,72.5-127.7,132-144.6c60.1-17.1,124.9-13.5,183.6,8.9
			c50.9,19.4,122.9,60,127.4,132.1c2.1,33.9-12.8,67-33.5,89.5c-55.5,60.5-148,75.7-219.9,61.3c-3.1,26.8,5.2,59.5,22.9,76.8
			C200.1,379.7,154.8,339.9,136.8,290.4z"/>
		<path class="st3" d="M125,295.5c-74.7-11-108.9-70.9-109.9-119.4C13.5,94.8,81.6,44,140.3,23.2C199.4,2.3,264.3,1.8,324,20.3
			c51.7,16.1,125.5,52.1,133.3,123.8c3.7,33.7-9.7,67.7-29.3,91.5c-52.7,64-144.3,85.1-216.7,75.3c-1.9,27,8,59.1,26.5,75.3
			C192.3,380.6,145.2,343.8,125,295.5z"/>
		<path d="M461.4,137.2c-6.2-36.8-30-64.3-56.2-83.4c-27-19.6-57.9-32.4-88.7-40.9c-44-12.3-90.2-14.4-135.1-6.1
			c-36.3,6.7-71.9,20.3-103.3,43c-27.6,20-52.6,48.4-63,85.3c-4.9,17.1-6.3,34.9-4.3,52.6c1.9,14.7,6.2,28.9,12.8,42.1
			c15.2,30.2,41.6,53.2,73.5,64.1c7.9,2.7,16.1,4.7,24.4,6.1c17.6,39.2,49.6,68.5,84.9,83c10.1,4.2,20.6,7,31.4,8.4
			c3.9,0.5,6.8-5.4,3.3-8.5c-17-15-25.4-41.5-25.1-66.2c34.2,3.9,68.9,1.3,102.1-7.7c35.1-9.4,69.6-26.1,97.8-52.8
			c14.8-14,27.8-30.7,36.3-50.8C461.4,184.3,465.3,160.6,461.4,137.2z M451.5,172c-3.6,21.4-12.6,41.6-26.1,58.5
			c-23.6,29.5-55,49-87.6,61.3c-32.8,12.1-67.6,17.6-102.6,16.1c-8-0.3-16-1-24-2.1c-2.6-0.4-4.7,1.9-4.9,4.8
			c-1.6,23.4,4.9,49.5,18.1,67.9c-29.9-7.7-58.3-28-78.1-55.3c-6.6-8.9-12.1-18.6-16.4-28.8c-0.4-1.3-1.2-2.4-2.4-3.1
			c-0.7-0.6-1.6-0.9-2.6-1h-0.1c-17.4-2.4-34.2-8.4-49.2-17.6c-6.5-4-12.7-8.7-18.3-13.9c-2.8-2.6-5.4-5.3-8-8.2
			c-1.2-1.4-2.5-2.9-3.6-4.3c-0.5-0.6-1-1.3-1.5-2s-0.6-0.8-1.3-1.8c-4.3-5.9-8-12.2-11.2-18.7c-9.3-19.4-13.1-41-11-62.5
			c3.3-36.6,23-67.3,47.1-89.3c25.8-23.6,56.8-39,88-48.2c42-12.3,86.3-14.8,129.5-7.4c18.2,3.1,36.1,7.9,53.4,14.4
			c7,2.6,14,5.4,20.8,8.4c7,3.1,13.5,6.4,20.6,10.4c13.8,7.8,26.8,16.9,38.3,28.2c10.9,10.7,20.5,23.3,26.6,38.1
			C452.3,133.5,454.6,153,451.5,172z"/>
		<path d="M396.5,33c5.3,2,10.5,4.4,15.4,7.3c5.2,3.1,10.2,6.6,14.9,10.5c4.6,3.8,8.9,8,12.8,12.5c4,4.5,7.7,9.3,11,14.4
			c3.9,6,7.3,12.4,10.1,19c2.2,5.2,11.9,2.7,9.2-3.6c-10.4-24.4-28.1-45-50.6-59c-6.2-3.8-12.7-7-19.4-9.5c-2.2-0.8-5.5-0.3-6.6,2.5
			S394.3,32.3,396.5,33L396.5,33z"/>
		<path d="M8.1,92.5c3.6-7,7.7-13.7,12.2-20.2c4.4-6.3,9.2-12.2,14.4-17.8c5-5.4,10.4-10.4,16.1-14.9c1.5-1.2,3-2.3,4.5-3.5l0.9-0.7
			c0.2-0.2,0.4-0.3,0.7-0.5c0.8-0.5,1.5-1.1,2.3-1.6c3.1-2.1,6.2-4.1,9.4-5.9c2.1-1.2,3.1-1.8,5.2-2.8c1.8-0.9,3.6-1.8,5.4-2.6
			c3.6-1.7,7.4-3.2,11.1-4.5c2.5-0.8,4.7-2.6,6-4.9c1-1.8,0.3-3.6-1.7-2.9c-30.4,10.7-58,31.6-78.6,59.9
			C10.1,77.5,4.9,85.8,0.4,94.5c-1,2-0.2,3.4,1.7,2.9C4.7,96.6,6.9,94.9,8.1,92.5L8.1,92.5z"/>
		<path d="M30.3,32.4c13.3-12.9,29.1-21.9,46-26c0.9-0.2-2.4-2.8-2.7-3c-1.1-0.9-2.3-1.7-3.5-2.4c-0.5-0.3-1.6-1.1-2.2-1
			C50.4,4.4,34.4,13.5,21.5,26.2c-0.4,0.4,3.8,3.5,4.1,3.8C26.2,30.4,29.6,33.1,30.3,32.4z"/>
	</g>
	<g id="Layer_4">
		<text transform="matrix(1.01 0 0 1 105.29 178.2599)" class="st4 st5">Get In </text>
		<text transform="matrix(1.01 0 0 1 237.9536 178.2599)" class="st4 st5 st6">T</text>
		<text transform="matrix(1.01 0 0 1 256.6689 178.2599)" class="st4 st5">ou</text>
		<text transform="matrix(1.01 0 0 1 307.9873 178.2599)" class="st4 st5">c</text>
		<text transform="matrix(1.01 0 0 1 331.2676 178.2599)" class="st4 st5">h</text>
	</g>
</g>
</svg>
