<svg xmlns="http://www.w3.org/2000/svg" xmlns:xlink="http://www.w3.org/1999/xlink" width="506.42" height="443.27" viewBox="0 0 506.42 443.27"><defs><style>.cls-1{fill:none;}.cls-2{fill:#272525;}.cls-3{fill:url(#_10_dpi_40_);}.cls-4{fill:#fff;}.cls-5{font-size:43.07px;font-family:FranklinGothic-Heavy, Franklin Gothic Heavy;font-weight:800;}.cls-6{letter-spacing:-0.04em;}.cls-7{letter-spacing:0.01em;}</style><pattern id="_10_dpi_40_" data-name="10 dpi 40%" width="28.8" height="28.8" patternTransform="translate(1591.5 374.97) scale(1.33 1.57)" patternUnits="userSpaceOnUse" viewBox="0 0 28.8 28.8"><rect class="cls-1" width="28.8" height="28.8"/><path class="cls-2" d="M28.8,31.68a2.88,2.88,0,1,0-2.88-2.88A2.88,2.88,0,0,0,28.8,31.68Z"/><path class="cls-2" d="M14.4,31.68a2.88,2.88,0,1,0-2.88-2.88A2.88,2.88,0,0,0,14.4,31.68Z"/><path class="cls-2" d="M28.8,17.28a2.88,2.88,0,1,0-2.88-2.88A2.88,2.88,0,0,0,28.8,17.28Z"/><path class="cls-2" d="M14.4,17.28a2.88,2.88,0,1,0-2.88-2.88A2.88,2.88,0,0,0,14.4,17.28Z"/><path class="cls-2" d="M7.2,24.48A2.88,2.88,0,1,0,4.32,21.6,2.88,2.88,0,0,0,7.2,24.48Z"/><path class="cls-2" d="M21.6,24.48a2.88,2.88,0,1,0-2.88-2.88A2.88,2.88,0,0,0,21.6,24.48Z"/><path class="cls-2" d="M7.2,10.08A2.88,2.88,0,1,0,4.32,7.2,2.88,2.88,0,0,0,7.2,10.08Z"/><path class="cls-2" d="M21.6,10.08A2.88,2.88,0,1,0,18.72,7.2,2.88,2.88,0,0,0,21.6,10.08Z"/><path class="cls-2" d="M0,31.68A2.88,2.88,0,0,0,2.88,28.8,2.88,2.88,0,0,0,0,25.92a2.88,2.88,0,0,0,0,5.76Z"/><path class="cls-2" d="M0,17.28A2.88,2.88,0,0,0,2.88,14.4,2.88,2.88,0,0,0,0,11.52a2.88,2.88,0,0,0,0,5.76Z"/><path class="cls-2" d="M28.8,2.88A2.88,2.88,0,0,0,31.68,0a2.88,2.88,0,0,0-5.76,0A2.88,2.88,0,0,0,28.8,2.88Z"/><path class="cls-2" d="M14.4,2.88A2.88,2.88,0,0,0,17.28,0a2.88,2.88,0,0,0-5.76,0A2.88,2.88,0,0,0,14.4,2.88Z"/><path class="cls-2" d="M0,2.88A2.88,2.88,0,0,0,2.88,0,2.88,2.88,0,0,0,0-2.88,2.88,2.88,0,0,0-2.88,0,2.88,2.88,0,0,0,0,2.88Z"/></pattern></defs><title>Asset 12</title><g id="Layer_2" data-name="Layer 2"><g id="Graphic_Element" data-name="Graphic Element"><path class="cls-3" d="M173.44,352.47c-74.67-11-108.88-70.85-109.86-119.37C62,151.81,130,101,188.73,80.26c59.19-20.9,124.07-21.46,183.75-2.9,51.69,16.07,125.46,52.07,133.33,123.8,3.69,33.67-9.72,67.74-29.29,91.53-52.66,64-144.26,85.1-216.67,75.33-1.9,27,8,59.12,26.46,75.25C240.78,437.63,193.66,400.78,173.44,352.47Z"/><path d="M136.81,290.36c-74-15.75-105.43-77.72-104.16-126.22,2.13-81.27,72.47-127.66,132-144.59C224.76,2.47,289.56,6.07,348.3,28.42c50.87,19.36,122.87,60,127.4,132.15,2.12,33.86-12.84,67-33.48,89.51-55.55,60.55-148,75.73-219.85,61.34-3.14,26.81,5.23,59.54,22.94,76.82C200.11,379.7,154.77,339.89,136.81,290.36Z"/><path class="cls-4" d="M125,295.45C50.3,284.48,16.09,224.6,15.11,176.09,13.47,94.8,81.56,44,140.26,23.24,199.45,2.35,264.32,1.78,324,20.34c51.68,16.07,125.46,52.07,133.33,123.81,3.69,33.66-9.72,67.74-29.29,91.52-52.66,64-144.26,85.1-216.68,75.33-1.89,27,8,59.12,26.46,75.25C192.3,380.61,145.19,343.77,125,295.45Z"/><path d="M461.4,137.23c-6.16-36.8-30-64.34-56.2-83.37-27-19.61-57.88-32.38-88.66-40.93A299.91,299.91,0,0,0,181.45,6.8c-36.27,6.73-71.88,20.26-103.26,43-27.61,20-52.56,48.36-63,85.28a133.9,133.9,0,0,0-4.25,52.55,131.29,131.29,0,0,0,12.84,42.13A129.23,129.23,0,0,0,97.28,293.9,150.69,150.69,0,0,0,121.65,300c17.64,39.18,49.63,68.49,84.94,83A123.2,123.2,0,0,0,238,391.39c3.9.49,6.81-5.43,3.32-8.51-17-15-25.41-41.5-25.09-66.17A274.07,274.07,0,0,0,318.33,309c35.13-9.43,69.58-26.07,97.83-52.8,14.77-14,27.81-30.68,36.3-50.77C461.42,184.26,465.31,160.64,461.4,137.23ZM451.48,172a128,128,0,0,1-26.13,58.54c-23.64,29.49-55.05,49-87.6,61.25a263,263,0,0,1-102.56,16.1q-12-.46-24-2.06c-2.61-.35-4.71,1.9-4.9,4.84-1.55,23.44,4.85,49.49,18.12,67.85-29.88-7.68-58.32-28-78.11-55.29a145.83,145.83,0,0,1-16.45-28.82,5.38,5.38,0,0,0-2.41-3.15,5,5,0,0,0-2.57-1l-.09,0a129.48,129.48,0,0,1-49.2-17.56,111.87,111.87,0,0,1-18.25-13.94q-4.15-3.9-8-8.24-1.86-2.12-3.63-4.33c-.52-.65-1-1.32-1.55-2s-.64-.82-1.35-1.81a125.59,125.59,0,0,1-11.16-18.74,117.47,117.47,0,0,1-11-62.49c3.34-36.64,23-67.26,47.13-89.32,25.77-23.56,56.79-39,88-48.18A288.19,288.19,0,0,1,285.27,16.2a300.82,300.82,0,0,1,53.39,14.36Q349.18,34.4,359.48,39c7,3.13,13.47,6.38,20.57,10.4,13.8,7.82,26.84,16.89,38.33,28.18,10.87,10.67,20.47,23.33,26.58,38.1A103.91,103.91,0,0,1,451.48,172Z"/><path d="M396.46,33a93.5,93.5,0,0,1,15.4,7.32,116.79,116.79,0,0,1,14.92,10.49A122.14,122.14,0,0,1,439.59,63.3a119.34,119.34,0,0,1,11,14.39,126,126,0,0,1,10.11,19c2.21,5.16,11.93,2.73,9.23-3.58a129.62,129.62,0,0,0-50.61-59,112.4,112.4,0,0,0-19.43-9.53c-2.2-.82-5.47-.27-6.56,2.46s1,5.25,3.1,6Z"/><path d="M8.13,92.5A174,174,0,0,1,20.31,72.34,160.59,160.59,0,0,1,34.72,54.57a141.63,141.63,0,0,1,16.1-14.92c1.47-1.18,3-2.33,4.46-3.45l.9-.66a4.87,4.87,0,0,1,.65-.47c.77-.54,1.53-1.08,2.3-1.6q4.6-3.15,9.4-5.93c2.09-1.21,3.1-1.76,5.16-2.82,1.79-.92,3.6-1.81,5.42-2.65,3.62-1.67,7.4-3.23,11.06-4.52a10.73,10.73,0,0,0,6-4.88c1-1.82.33-3.62-1.71-2.9C64.1,20.43,36.51,41.41,15.85,69.64A188.09,188.09,0,0,0,.45,94.48c-1,2-.23,3.37,1.71,2.91a10.2,10.2,0,0,0,6-4.89Z"/><path d="M30.33,32.36c13.27-12.88,29.1-21.89,46-26,.92-.22-2.41-2.81-2.66-3A32.41,32.41,0,0,0,70.17,1C69.62.7,68.54-.13,67.93,0A101.72,101.72,0,0,0,21.48,26.19c-.41.4,3.75,3.55,4.08,3.78.67.47,4,3.18,4.77,2.39Z"/></g><g id="Layer_4" data-name="Layer 4"><text class="cls-5" transform="translate(105.29 178.26) scale(1.01 1)">Get In <tspan class="cls-6" x="131.35" y="0">T</tspan><tspan x="149.88" y="0">ou</tspan><tspan class="cls-7" x="200.69" y="0">c</tspan><tspan x="223.74" y="0">h</tspan></text></g></g></svg>