<?xml version="1.0" encoding="utf-8"?>
<!-- Generator: Adobe Illustrator 23.0.3, SVG Export Plug-In . SVG Version: 6.00 Build 0)  -->
<svg version="1.1" id="Layer_1" xmlns="http://www.w3.org/2000/svg" xmlns:xlink="http://www.w3.org/1999/xlink" x="0px" y="0px"
	 viewBox="0 0 260.9 170.4" style="enable-background:new 0 0 260.9 170.4;" xml:space="preserve">
<style type="text/css">
	.st0{fill:none;}
	.st1{fill:#272525;}
	.st2{fill:url(#SVGID_2_);}
	.st3{fill:#FFFFFF;stroke:#000000;stroke-width:8;stroke-miterlimit:10;}
	.st4{font-family:'Tektur-Black';}
	.st5{font-size:43.07px;}
</style>
<pattern  y="170.4" width="28.8" height="28.8" patternUnits="userSpaceOnUse" id="SVGID_1_" viewBox="2.9 -31.7 28.8 28.8" style="overflow:visible;">
	<g>
		<rect x="2.9" y="-31.7" class="st0" width="28.8" height="28.8"/>
		<g>
			<rect x="2.9" y="-31.7" class="st0" width="28.8" height="28.8"/>
			<rect x="2.9" y="-31.7" class="st0" width="28.8" height="28.8"/>
			<path class="st1" d="M31.7,0c1.6,0,2.9-1.3,2.9-2.9s-1.3-2.9-2.9-2.9s-2.9,1.3-2.9,2.9S30.1,0,31.7,0L31.7,0z"/>
			<path class="st1" d="M17.3,0c1.6,0,2.9-1.3,2.9-2.9s-1.3-2.9-2.9-2.9s-2.9,1.3-2.9,2.9S15.7,0,17.3,0L17.3,0z"/>
			<path class="st1" d="M31.7-14.4c1.6,0,2.9-1.3,2.9-2.9s-1.3-2.9-2.9-2.9s-2.9,1.3-2.9,2.9S30.1-14.4,31.7-14.4L31.7-14.4z"/>
			<path class="st1" d="M17.3-14.4c1.6,0,2.9-1.3,2.9-2.9s-1.3-2.9-2.9-2.9s-2.9,1.3-2.9,2.9S15.7-14.4,17.3-14.4L17.3-14.4z"/>
			<path class="st1" d="M10.1-7.2c1.6,0,2.9-1.3,2.9-2.9S11.7-13,10.1-13s-2.9,1.3-2.9,2.9l0,0C7.2-8.5,8.5-7.2,10.1-7.2z"/>
			<path class="st1" d="M24.5-7.2c1.6,0,2.9-1.3,2.9-2.9S26.1-13,24.5-13s-2.9,1.3-2.9,2.9S22.9-7.2,24.5-7.2L24.5-7.2z"/>
			<path class="st1" d="M10.1-21.6c1.6,0,2.9-1.3,2.9-2.9s-1.3-2.9-2.9-2.9s-2.9,1.3-2.9,2.9l0,0C7.2-22.9,8.5-21.6,10.1-21.6z"/>
			<path class="st1" d="M24.5-21.6c1.6,0,2.9-1.3,2.9-2.9s-1.3-2.9-2.9-2.9s-2.9,1.3-2.9,2.9S22.9-21.6,24.5-21.6L24.5-21.6z"/>
			<path class="st1" d="M2.9,0c1.6,0,2.9-1.3,2.9-2.9l0,0c0-1.6-1.3-2.9-2.9-2.9S0-4.5,0-2.9C0-1.3,1.3,0,2.9,0z"/>
			<path class="st1" d="M2.9-14.4c1.6,0,2.9-1.3,2.9-2.9l0,0c0-1.6-1.3-2.9-2.9-2.9S0-18.9,0-17.3S1.3-14.4,2.9-14.4z"/>
			<path class="st1" d="M31.7-28.8c1.6,0,2.9-1.3,2.9-2.9l0,0c0-1.6-1.3-2.9-2.9-2.9s-2.9,1.3-2.9,2.9S30.1-28.8,31.7-28.8z"/>
			<path class="st1" d="M17.3-28.8c1.6,0,2.9-1.3,2.9-2.9l0,0c0-1.6-1.3-2.9-2.9-2.9s-2.9,1.3-2.9,2.9S15.7-28.8,17.3-28.8z"/>
			<path class="st1" d="M2.9-28.8c1.6,0,2.9-1.3,2.9-2.9l0,0c0-1.6-1.3-2.9-2.9-2.9l0,0c-1.6,0-2.9,1.3-2.9,2.9l0,0
				C0-30.1,1.3-28.8,2.9-28.8L2.9-28.8z"/>
		</g>
	</g>
</pattern>
<title>Asset 13</title>
<g>
	<g id="Layer_3">
		<pattern  id="SVGID_2_" xlink:href="#SVGID_1_" patternTransform="matrix(0.72 0 0 0.75 -4474.897 12285.5576)">
		</pattern>
		<path class="st2" d="M238,50.6c2.8-1.4,28.3,27.5,21.9,55.7c-2.5,11.1-9.7,22.4-9.7,22.4c-4,5.4-7.6,10.2-12,13.6
			c-22.9,17.4-40.5,25.3-67.9,27.6s-48.8-1.9-88.9-13.2c-25.4-7.2-48-25.9-46.8-28.3c0.5-1,12.2,4.9,18.2,6.5
			c6.9,1.8,9.7,5.4,31.4,8.5c16.4,2.4,33,3.8,49.6,4c24.4,0.3,41.3,0.3,60.7-7.9c7.5-3.1,14.5-7.3,20.8-12.3
			c6.1-4.8,14.4-11.5,20.1-23.3c6.5-13.5,6-26.2,5.7-32.8C240.6,57.3,236.8,51.1,238,50.6z"/>
		<path class="st3" d="M233.5,57.4c-1-2.4-4.8-11.7-16.7-22.6c-16.5-15.2-34.1-20.5-46.8-24.2c-30.2-8.7-55-6.6-68.2-5.4
			C86.8,6.6,72.1,8,54.4,15.9C40.2,22.3,17.3,32.6,8,56.9c-1.5,4-6.8,18.5-2.1,35.5c5.2,18.6,19.2,28.3,25,32.3
			c7.1,4.9,14.4,8.1,29.7,11.9c19.5,4.8,38.1,9.4,64,8.6c16.1-0.5,48.6-1.1,77.2-15.6c16.8-8.5,27.8-17.9,33.7-37.2
			C240.5,76,234.6,60.3,233.5,57.4z"/>
		<path d="M205,22.6c0.3-0.4,26.7,10.4,37.1,36.3c1,2.6,11.1,26.2-0.7,48.1c-10.6,19.7-24.2,27.3-40.3,33.4
			c-22.4,8.5-48,11.5-72.9,11.5c-35.5-0.1-63.6-11.9-63.5-12.2c0-0.2,9,2.1,24.3,3.8c12,1.3,24.2,1.8,36.3,1.6
			c15.2,0,22.8,0,31.6-1.6c9.4-1.8,18.6-4.5,27.4-8.3c8.1-3.4,13.5-6.6,21.4-11.3c13.9-8.3,21-12.6,25.3-20.1
			c2.6-4.7,4.4-9.8,5.2-15.1c1.3-7,1.3-14.2,0-21.2c-0.4-2.2-2.3-11.2-9.7-22.6C216.6,29.6,204.8,22.8,205,22.6z"/>
	</g>
	<g id="Layer_4">
		<text transform="matrix(1.01 0 0 1 26.75 86.5499)" class="st4 st5">Lin</text>
		<text transform="matrix(1.01 0 0 1 88.6631 86.5499)" class="st4 st5">k</text>
		<text transform="matrix(1.01 0 0 1 113.0039 86.5499)" class="st4 st5">edin</text>
	</g>
</g>
</svg>
