<svg id="Layer_1" data-name="Layer 1" xmlns="http://www.w3.org/2000/svg" width="98.59mm" height="30.71mm" viewBox="0 0 279.48 87.04"><defs><style>.cls-1{stroke:#000;stroke-miterlimit:10;stroke-width:4px;}</style></defs><title>logo</title><path class="cls-1" d="M7.64,76.49H261.75a1.89,1.89,0,0,1,.75,0c1.18.48,2.34,1,3.51,1.51-1.19.51-2.38,1.46-3.57,1.47q-97.3.11-194.61.06h-57C9.18,79.51,6.69,80.22,7.64,76.49Z" transform="translate(1.99 4.81)"/><path class="cls-1" d="M249.48.32l25,59.07c-12.07,0-23.56,0-35-.06-.7,0-1.39-.89-2.08-1.36.76-.54,1.51-1.53,2.28-1.54,9.86-.1,19.73-.07,30.26-.07l-20.37-48c-.84,1.81-1.46,3-2,4.3q-9.39,22-18.73,44.1c-.79,1.88-1.53,3.45-4.21,2.22" transform="translate(1.99 4.81)"/><path class="cls-1" d="M95.37,59.23H58.77c-1.22-3,.71-2.88,2.54-2.87H90.85c-6.77-16-13.38-31.56-20.28-47.84-.77,1.49-1.29,2.35-1.69,3.28q-9.54,22.35-19,44.73c-.75,1.77-1.28,3.7-4.28,2.42C53.75,39.72,61.89,20.5,70.43.32,78.91,20.4,87.08,39.68,95.37,59.23Z" transform="translate(1.99 4.81)"/><path class="cls-1" d="M109.81,4.56V9.24q0,23.61-.06,47.21c0,1-.86,1.94-1.32,2.91-.57-.87-1.61-1.75-1.62-2.62-.09-17.74-.06-35.48,0-53.21a20.44,20.44,0,0,1,.51-2.66c7.43.63,14.93.76,22.23,2,6.25,1.08,11,4.88,12.07,11.71s-2.93,11.24-8.32,14.63c-.52.33-1.06.64-1.92,1.17l13.19,28.35-.56.83c-1.08-.62-2.7-1-3.15-1.9-4.5-9.28-8.81-18.66-13.23-28.13,2.15-1.27,4.16-2.27,6-3.56,3.58-2.57,5.6-6,5.07-10.58-.51-4.3-3.18-6.85-7-8.5C124.71,4,117.49,4.45,109.81,4.56Z" transform="translate(1.99 4.81)"/><path class="cls-1" d="M3.1,3.7V75A9.94,9.94,0,0,1,3,77.61,6.4,6.4,0,0,1,1.72,79.4,24.83,24.83,0,0,1,.09,77.47c-.17-.26,0-.73,0-1.1V4c0-.72.11-1.44.21-2.62,9,.23,17.85-1,26.44,2,7,2.4,11.48,7.05,12.16,14.62s-2.3,13.37-9.13,17c-1.54.82-3,1.7-4.51,2.53-2.32-1.88-1.2-2.87.67-3.87,3.77-2,7.48-4.09,9.1-8.46,3-8.26-.69-16.76-9.45-18.89C18.5,4.66,11.05,4.58,3.1,3.7Z" transform="translate(1.99 4.81)"/><path class="cls-1" d="M177.51,54.1c1,0,2.27-.38,3,.06,7.94,4.53,16.31,4.44,24.68,2,7.62-2.26,11.41-9.15,8-14.84a18.77,18.77,0,0,0-7.75-6.59c-4.23-2-9-2.95-13.45-4.53a49.48,49.48,0,0,1-8.18-3.58c-5.23-3-7-7.78-6.31-13.7.66-5.59,3.74-9.35,8.84-11,9.34-3.11,18.34-2.5,26.5,3.27l-.05,1.51c-1.08,0-2.39.41-3.19-.07-6.68-3.93-13.78-4.2-21-2.38a10,10,0,0,0-8,8.87c-.73,5,.66,9.18,5.37,11.24,5.23,2.29,10.83,3.73,16.13,5.85,3.66,1.46,7.53,2.92,10.57,5.31,6.54,5.12,6.31,14.89,0,20.29-7.94,6.82-27.2,6.66-35.14-.28Z" transform="translate(1.99 4.81)"/><path class="cls-1" d="M161.16,59.14c-3.27.89-2.85-1.23-2.85-2.94V16.14c0-4.12-.1-8.25.09-12.36,0-.9,1.15-1.76,1.77-2.64l1,.63Z" transform="translate(1.99 4.81)"/></svg>