<svg xmlns="http://www.w3.org/2000/svg" xmlns:xlink="http://www.w3.org/1999/xlink" width="260.89" height="170.37" viewBox="0 0 260.89 170.37"><defs><style>.cls-1{fill:none;}.cls-2{fill:#272525;}.cls-3{fill:url(#_10_dpi_40_);}.cls-4{fill:#fff;stroke:#000;stroke-miterlimit:10;stroke-width:8px;}.cls-5{font-size:43.07px;font-family:FranklinGothic-Heavy, Franklin Gothic Heavy;font-weight:800;}</style><pattern id="_10_dpi_40_" data-name="10 dpi 40%" width="28.8" height="28.8" patternTransform="translate(38.32 25.43) scale(0.72 0.75)" patternUnits="userSpaceOnUse" viewBox="0 0 28.8 28.8"><rect class="cls-1" width="28.8" height="28.8"/><path class="cls-2" d="M28.8,31.68a2.88,2.88,0,1,0-2.88-2.88A2.88,2.88,0,0,0,28.8,31.68Z"/><path class="cls-2" d="M14.4,31.68a2.88,2.88,0,1,0-2.88-2.88A2.88,2.88,0,0,0,14.4,31.68Z"/><path class="cls-2" d="M28.8,17.28a2.88,2.88,0,1,0-2.88-2.88A2.88,2.88,0,0,0,28.8,17.28Z"/><path class="cls-2" d="M14.4,17.28a2.88,2.88,0,1,0-2.88-2.88A2.88,2.88,0,0,0,14.4,17.28Z"/><path class="cls-2" d="M7.2,24.48A2.88,2.88,0,1,0,4.32,21.6,2.88,2.88,0,0,0,7.2,24.48Z"/><path class="cls-2" d="M21.6,24.48a2.88,2.88,0,1,0-2.88-2.88A2.88,2.88,0,0,0,21.6,24.48Z"/><path class="cls-2" d="M7.2,10.08A2.88,2.88,0,1,0,4.32,7.2,2.88,2.88,0,0,0,7.2,10.08Z"/><path class="cls-2" d="M21.6,10.08A2.88,2.88,0,1,0,18.72,7.2,2.88,2.88,0,0,0,21.6,10.08Z"/><path class="cls-2" d="M0,31.68A2.88,2.88,0,0,0,2.88,28.8,2.88,2.88,0,0,0,0,25.92a2.88,2.88,0,0,0,0,5.76Z"/><path class="cls-2" d="M0,17.28A2.88,2.88,0,0,0,2.88,14.4,2.88,2.88,0,0,0,0,11.52a2.88,2.88,0,0,0,0,5.76Z"/><path class="cls-2" d="M28.8,2.88A2.88,2.88,0,0,0,31.68,0a2.88,2.88,0,0,0-5.76,0A2.88,2.88,0,0,0,28.8,2.88Z"/><path class="cls-2" d="M14.4,2.88A2.88,2.88,0,0,0,17.28,0a2.88,2.88,0,0,0-5.76,0A2.88,2.88,0,0,0,14.4,2.88Z"/><path class="cls-2" d="M0,2.88A2.88,2.88,0,0,0,2.88,0,2.88,2.88,0,0,0,0-2.88,2.88,2.88,0,0,0-2.88,0,2.88,2.88,0,0,0,0,2.88Z"/></pattern></defs><title>Asset 9</title><g id="Layer_2" data-name="Layer 2"><g id="Layer_3" data-name="Layer 3"><path class="cls-3" d="M238,50.57c2.83-1.36,28.31,27.49,21.86,55.65-2.54,11.12-9.71,22.44-9.71,22.44-4,5.4-7.57,10.2-12,13.55-22.93,17.42-40.51,25.28-67.86,27.56s-48.77-1.86-88.86-13.23C56,149.31,33.38,130.66,34.58,128.21c.46-1,12.21,4.91,18.22,6.46,6.94,1.79,9.66,5.41,31.41,8.53a377.42,377.42,0,0,0,49.64,4c24.35.27,41.33.29,60.74-7.9A87.8,87.8,0,0,0,215.42,127c6.08-4.84,14.4-11.46,20.13-23.33,6.5-13.48,6-26.22,5.72-32.85C240.63,57.33,236.77,51.15,238,50.57Z"/><path class="cls-4" d="M233.46,57.39c-1-2.4-4.82-11.67-16.66-22.61C200.34,19.55,182.67,14.23,170,10.54c-30.21-8.73-55-6.62-68.21-5.38C86.75,6.57,72.1,8,54.36,15.93,40.19,22.3,17.29,32.59,8,56.86,6.5,60.84,1.17,75.4,5.94,92.4c5.21,18.58,19.17,28.27,25,32.31,7.06,4.9,14.43,8.06,29.68,11.85,19.5,4.84,38.06,9.45,64,8.61,16.1-.52,48.57-1.09,77.23-15.61,16.75-8.49,27.8-17.89,33.67-37.16C240.54,76,234.61,60.28,233.46,57.39Z"/><path d="M205,22.57c.26-.35,26.66,10.36,37.14,36.26,1,2.56,11.15,26.19-.69,48.11-10.63,19.66-24.23,27.29-40.27,33.39-22.36,8.5-48,11.52-72.89,11.49-35.54-.06-63.58-11.85-63.52-12.21,0-.2,9,2.1,24.3,3.77A305.7,305.7,0,0,0,125.34,145c15.18,0,22.77,0,31.59-1.61a132,132,0,0,0,27.42-8.26c8.15-3.43,13.49-6.62,21.35-11.31,13.93-8.31,21-12.62,25.34-20.1a45.89,45.89,0,0,0,5.2-15.08,56.82,56.82,0,0,0,0-21.18c-.41-2.18-2.26-11.23-9.72-22.62C216.55,29.59,204.83,22.81,205,22.57Z"/></g><g id="Layer_4" data-name="Layer 4"><text class="cls-5" transform="translate(63.47 87.27) scale(1.01 1)">HTML</text></g></g></svg>