<svg xmlns="http://www.w3.org/2000/svg" xmlns:xlink="http://www.w3.org/1999/xlink" width="308.18" height="170.37" viewBox="0 0 308.18 170.37"><defs><style>.cls-1{fill:none;}.cls-2{fill:#272525;}.cls-3{fill:url(#_10_dpi_40_);}.cls-4{fill:#fff;stroke:#000;stroke-miterlimit:10;stroke-width:8px;}.cls-5{font-size:43.07px;font-family:FranklinGothic-Heavy, Franklin Gothic Heavy;font-weight:800;}.cls-6{letter-spacing:-0.01em;}.cls-7{letter-spacing:-0.04em;}.cls-8{letter-spacing:-0.04em;}</style><pattern id="_10_dpi_40_" data-name="10 dpi 40%" width="28.8" height="28.8" patternTransform="translate(44.64 -6.01) scale(0.86 0.75)" patternUnits="userSpaceOnUse" viewBox="0 0 28.8 28.8"><rect class="cls-1" width="28.8" height="28.8"/><path class="cls-2" d="M28.8,31.68a2.88,2.88,0,1,0-2.88-2.88A2.88,2.88,0,0,0,28.8,31.68Z"/><path class="cls-2" d="M14.4,31.68a2.88,2.88,0,1,0-2.88-2.88A2.88,2.88,0,0,0,14.4,31.68Z"/><path class="cls-2" d="M28.8,17.28a2.88,2.88,0,1,0-2.88-2.88A2.88,2.88,0,0,0,28.8,17.28Z"/><path class="cls-2" d="M14.4,17.28a2.88,2.88,0,1,0-2.88-2.88A2.88,2.88,0,0,0,14.4,17.28Z"/><path class="cls-2" d="M7.2,24.48A2.88,2.88,0,1,0,4.32,21.6,2.88,2.88,0,0,0,7.2,24.48Z"/><path class="cls-2" d="M21.6,24.48a2.88,2.88,0,1,0-2.88-2.88A2.88,2.88,0,0,0,21.6,24.48Z"/><path class="cls-2" d="M7.2,10.08A2.88,2.88,0,1,0,4.32,7.2,2.88,2.88,0,0,0,7.2,10.08Z"/><path class="cls-2" d="M21.6,10.08A2.88,2.88,0,1,0,18.72,7.2,2.88,2.88,0,0,0,21.6,10.08Z"/><path class="cls-2" d="M0,31.68A2.88,2.88,0,0,0,2.88,28.8,2.88,2.88,0,0,0,0,25.92a2.88,2.88,0,0,0,0,5.76Z"/><path class="cls-2" d="M0,17.28A2.88,2.88,0,0,0,2.88,14.4,2.88,2.88,0,0,0,0,11.52a2.88,2.88,0,0,0,0,5.76Z"/><path class="cls-2" d="M28.8,2.88A2.88,2.88,0,0,0,31.68,0a2.88,2.88,0,0,0-5.76,0A2.88,2.88,0,0,0,28.8,2.88Z"/><path class="cls-2" d="M14.4,2.88A2.88,2.88,0,0,0,17.28,0a2.88,2.88,0,0,0-5.76,0A2.88,2.88,0,0,0,14.4,2.88Z"/><path class="cls-2" d="M0,2.88A2.88,2.88,0,0,0,2.88,0,2.88,2.88,0,0,0,0-2.88,2.88,2.88,0,0,0-2.88,0,2.88,2.88,0,0,0,0,2.88Z"/></pattern></defs><title>Asset 11</title><g id="Layer_2" data-name="Layer 2"><g id="Layer_3" data-name="Layer 3"><path class="cls-3" d="M281.05,50.57c3.36-1.36,33.53,27.49,25.9,55.65-3,11.12-11.51,22.44-11.51,22.44-4.68,5.4-9,10.2-14.18,13.55-27.15,17.42-48,25.28-80.35,27.56s-57.75-1.86-105.22-13.23c-30.18-7.23-56.9-25.88-55.48-28.33.55-1,14.45,4.91,21.57,6.46,8.22,1.79,11.44,5.41,37.2,8.53a527.32,527.32,0,0,0,58.77,4c28.84.27,48.94.29,71.93-7.9A109.28,109.28,0,0,0,254.34,127c7.2-4.84,17-11.46,23.84-23.33,7.7-13.48,7.15-26.22,6.78-32.85C284.19,57.33,279.62,51.15,281.05,50.57Z"/><path class="cls-4" d="M275.71,57.39C274.58,55,270,45.72,256,34.78c-19.5-15.23-40.41-20.55-55.48-24.24-35.76-8.73-65.18-6.62-80.77-5.38C102,6.57,84.63,8,63.63,15.93,46.86,22.3,19.73,32.59,8.76,56.86,7,60.84.65,75.4,6.3,92.4,12.47,111,29,120.67,35.89,124.71c8.36,4.9,17.09,8.06,35.14,11.85,23.1,4.84,45.06,9.45,75.83,8.61,19.07-.52,57.52-1.09,91.45-15.61,19.83-8.49,32.92-17.89,39.87-37.16C284.09,76,277.06,60.28,275.71,57.39Z"/><path d="M242,22.57c.3-.35,31.57,10.36,44,36.26,1.23,2.56,13.2,26.19-.82,48.11-12.58,19.66-28.69,27.29-47.67,33.39-26.49,8.5-56.87,11.52-86.31,11.49C109.09,151.76,75.88,140,76,139.61c.05-.2,10.67,2.1,28.77,3.77a428.09,428.09,0,0,0,43,1.61c18,0,27,0,37.4-1.61a178.45,178.45,0,0,0,32.47-8.26c9.65-3.43,16-6.62,25.28-11.31,16.5-8.31,24.86-12.62,30-20.1A41.49,41.49,0,0,0,279,88.63a48.32,48.32,0,0,0,0-21.18c-.49-2.18-2.68-11.23-11.51-22.62C255.68,29.59,241.8,22.81,242,22.57Z"/></g><g id="Layer_4" data-name="Layer 4"><text class="cls-5" transform="translate(23.64 91.14) scale(1.01 1)"><tspan class="cls-6">J</tspan><tspan class="cls-7" x="17.39" y="0">A</tspan><tspan class="cls-8" x="43.13" y="0">V</tspan><tspan x="69.1" y="0">ASCRIPT</tspan></text></g></g></svg>