<?xml version="1.0" encoding="utf-8"?>
<!-- Generator: Adobe Illustrator 23.0.3, SVG Export Plug-In . SVG Version: 6.00 Build 0)  -->
<svg version="1.1" id="Layer_1" xmlns="http://www.w3.org/2000/svg" xmlns:xlink="http://www.w3.org/1999/xlink" x="0px" y="0px"
	 viewBox="0 0 308.2 170.4" style="enable-background:new 0 0 308.2 170.4;" xml:space="preserve">
<style type="text/css">
	.st0{fill:none;}
	.st1{fill:#272525;}
	.st2{fill:url(#SVGID_1_);}
	.st3{fill:#FFFFFF;stroke:#000000;stroke-width:8;stroke-miterlimit:10;}
	.st4{font-family:'Tektur-Black';}
	.st5{font-size:43.07px;}
	.st6{letter-spacing:-1;}
</style>
<pattern  y="170.4" width="28.8" height="28.8" patternUnits="userSpaceOnUse" id="_10_dpi_40_" viewBox="2.9 -31.7 28.8 28.8" style="overflow:visible;">
	<g>
		<rect x="2.9" y="-31.7" class="st0" width="28.8" height="28.8"/>
		<rect x="2.9" y="-31.7" class="st0" width="28.8" height="28.8"/>
		<path class="st1" d="M31.7-34.6c1.6,0,2.9,1.3,2.9,2.9s-1.3,2.9-2.9,2.9s-2.9-1.3-2.9-2.9S30.1-34.6,31.7-34.6L31.7-34.6z"/>
		<path class="st1" d="M17.3-34.6c1.6,0,2.9,1.3,2.9,2.9s-1.3,2.9-2.9,2.9s-2.9-1.3-2.9-2.9S15.7-34.6,17.3-34.6L17.3-34.6z"/>
		<path class="st1" d="M31.7-20.2c1.6,0,2.9,1.3,2.9,2.9s-1.3,2.9-2.9,2.9s-2.9-1.3-2.9-2.9S30.1-20.2,31.7-20.2
			C31.7-20.2,31.7-20.2,31.7-20.2z"/>
		<path class="st1" d="M17.3-20.2c1.6,0,2.9,1.3,2.9,2.9s-1.3,2.9-2.9,2.9s-2.9-1.3-2.9-2.9S15.7-20.2,17.3-20.2L17.3-20.2z"/>
		<path class="st1" d="M10.1-27.4c1.6,0,2.9,1.3,2.9,2.9c0,1.6-1.3,2.9-2.9,2.9s-2.9-1.3-2.9-2.9c0,0,0,0,0,0
			C7.2-26.1,8.5-27.4,10.1-27.4z"/>
		<path class="st1" d="M24.5-27.4c1.6,0,2.9,1.3,2.9,2.9s-1.3,2.9-2.9,2.9s-2.9-1.3-2.9-2.9S22.9-27.4,24.5-27.4L24.5-27.4z"/>
		<path class="st1" d="M10.1-13c1.6,0,2.9,1.3,2.9,2.9c0,1.6-1.3,2.9-2.9,2.9c-1.6,0-2.9-1.3-2.9-2.9c0,0,0,0,0,0
			C7.2-11.7,8.5-13,10.1-13z"/>
		<path class="st1" d="M24.5-13c1.6,0,2.9,1.3,2.9,2.9s-1.3,2.9-2.9,2.9s-2.9-1.3-2.9-2.9S22.9-13,24.5-13C24.5-13,24.5-13,24.5-13z
			"/>
		<path class="st1" d="M2.9-34.6c1.6,0,2.9,1.3,2.9,2.9c0,0,0,0,0,0c0,1.6-1.3,2.9-2.9,2.9S0-30.1,0-31.7S1.3-34.6,2.9-34.6z"/>
		<path class="st1" d="M2.9-20.2c1.6,0,2.9,1.3,2.9,2.9v0c0,1.6-1.3,2.9-2.9,2.9S0-15.7,0-17.3S1.3-20.2,2.9-20.2z"/>
		<path class="st1" d="M31.7-5.8c1.6,0,2.9,1.3,2.9,2.9c0,0,0,0,0,0c0,1.6-1.3,2.9-2.9,2.9s-2.9-1.3-2.9-2.9S30.1-5.8,31.7-5.8z"/>
		<path class="st1" d="M17.3-5.8c1.6,0,2.9,1.3,2.9,2.9c0,0,0,0,0,0c0,1.6-1.3,2.9-2.9,2.9s-2.9-1.3-2.9-2.9S15.7-5.8,17.3-5.8z"/>
		<path class="st1" d="M2.9-5.8c1.6,0,2.9,1.3,2.9,2.9c0,0,0,0,0,0C5.8-1.3,4.5,0,2.9,0c0,0,0,0,0,0C1.3,0,0-1.3,0-2.9c0,0,0,0,0,0
			C0-4.5,1.3-5.8,2.9-5.8C2.9-5.8,2.9-5.8,2.9-5.8z"/>
	</g>
</pattern>
<title>Asset 11</title>
<g>
	<g id="Layer_3">
		<pattern  id="SVGID_1_" xlink:href="#_10_dpi_40_" patternTransform="matrix(0.86 0 0 -0.75 -1060.9767 -13679.3809)">
		</pattern>
		<path class="st2" d="M281,50.6c3.4-1.4,33.5,27.5,25.9,55.7c-3,11.1-11.5,22.4-11.5,22.4c-4.7,5.4-9,10.2-14.2,13.6
			c-27.1,17.4-48,25.3-80.4,27.6s-57.8-1.9-105.2-13.2c-30.2-7.2-56.9-25.9-55.5-28.3c0.5-1,14.5,4.9,21.6,6.5
			c8.2,1.8,11.4,5.4,37.2,8.5c19.5,2.4,39.1,3.8,58.8,4c28.8,0.3,48.9,0.3,71.9-7.9c8.7-3,17-7.2,24.7-12.3
			c7.2-4.8,17-11.5,23.8-23.3c7.7-13.5,7.1-26.2,6.8-32.8C284.2,57.3,279.6,51.1,281,50.6z"/>
		<path class="st3" d="M275.7,57.4C274.6,55,270,45.7,256,34.8c-19.5-15.2-40.4-20.5-55.5-24.2c-35.8-8.7-65.2-6.6-80.8-5.4
			C102,6.6,84.6,8,63.6,15.9C46.9,22.3,19.7,32.6,8.8,56.9c-1.8,4-8.1,18.5-2.5,35.5c6.2,18.6,22.7,28.3,29.6,32.3
			c8.4,4.9,17.1,8.1,35.1,11.9c23.1,4.8,45.1,9.4,75.8,8.6c19.1-0.5,57.5-1.1,91.4-15.6c19.8-8.5,32.9-17.9,39.9-37.2
			C284.1,76,277.1,60.3,275.7,57.4z"/>
		<path d="M242,22.6c0.3-0.4,31.6,10.4,44,36.3c1.2,2.6,13.2,26.2-0.8,48.1c-12.6,19.7-28.7,27.3-47.7,33.4
			c-26.5,8.5-56.9,11.5-86.3,11.5c-42.1-0.1-75.3-11.8-75.2-12.2c0.1-0.2,10.7,2.1,28.8,3.8c14.3,1.3,28.6,1.8,43,1.6
			c18,0,27,0,37.4-1.6c11.1-1.7,21.9-4.5,32.5-8.3c9.6-3.4,16-6.6,25.3-11.3c16.5-8.3,24.9-12.6,30-20.1c3-4.6,5.1-9.7,6.1-15.1
			c1.6-7,1.6-14.2,0-21.2c-0.5-2.2-2.7-11.2-11.5-22.6C255.7,29.6,241.8,22.8,242,22.6z"/>
	</g>
	<g id="Layer_4">
		<text transform="matrix(1.01 0 0 1 19.6401 91.1398)" class="st4 st5">J</text>
		<text transform="matrix(1.01 0 0 1 37.2041 91.1398)" class="st4 st5 st6">A</text>
		<text transform="matrix(1.01 0 0 1 63.2012 91.1398)" class="st4 st5 st6">V</text>
		<text transform="matrix(1.01 0 0 1 89.4312 91.1398)" class="st4 st5">ASCRIPT</text>
	</g>
</g>
</svg>
